<svg height="512pt" viewBox="0 -30 512 511" width="512pt" xmlns="http://www.w3.org/2000/svg"><path d="m0 452.453125h512v-301.855469h-512zm90.878906-225.976563h330.242188v150.09375h-330.242188zm0 0"/><path d="m120.878906 346.570312h270.242188v-90.09375h-270.242188zm210.179688-60.046874h30.027344v30h-30.027344zm-60.046875 0h30.023437v30h-30.023437zm-60.046875 0h30.023437v30h-30.023437zm-60.050782 0h30.027344v30h-30.027344zm0 0"/><path d="m0 .5v120.097656h512v-120.097656zm90.058594 75.046875h-30.023438v-30h30.023438zm60.050781 0h-30.023437v-30h30.023437zm60.046875 0h-30.023438v-30h30.023438zm0 0"/></svg>