<svg height="512pt" viewBox="0 -40 512 511" width="512pt" xmlns="http://www.w3.org/2000/svg"><path d="m0 .5v260.992188h512v-260.992188zm150.109375 55.449219h211.78125v30h-211.78125zm-90.074219 0h60.050782v30h-60.050782zm0 60.046875h180.953125v30h-180.953125zm60.050782 90.046875h-60.050782v-30h60.050782zm241.804687 0h-211.78125v-30h211.78125zm90.074219 0h-60.050782v-30h60.050782zm0-60.046875h-180.953125v-30h180.953125zm0-60.046875h-60.050782v-30h60.050782zm0 0"/><path d="m0 371.554688h160.9375v30.050781h-30.039062v30h250.203124v-30h-30.039062v-30.050781h160.9375v-80.0625h-512zm0 0"/></svg>