<svg height="512pt" viewBox="-70 0 512 512" width="512pt" xmlns="http://www.w3.org/2000/svg"><path d="m185.792969 294.671875c-8.285157 0-15.023438 6.738281-15.023438 15.023437 0 8.28125 6.738281 15.023438 15.023438 15.023438 8.285156 0 15.023437-6.742188 15.023437-15.023438 0-8.285156-6.738281-15.023437-15.023437-15.023437zm0 0"/><path d="m185.792969 215.414062c-61.09375 0-110.792969 49.703126-110.792969 110.792969 0 61.089844 49.699219 110.792969 110.792969 110.792969s110.792969-49.703125 110.792969-110.792969c0-61.089843-49.699219-110.792969-110.792969-110.792969zm15 136.726563v32.613281h-30v-32.613281c-17.472657-6.195313-30.023438-22.878906-30.023438-42.445313 0-24.828124 20.199219-45.023437 45.023438-45.023437s45.023437 20.195313 45.023437 45.023437c0 19.566407-12.550781 36.25-30.023437 42.445313zm0 0"/><path d="m304.640625 183.515625v-64.667969c0-65.53125-53.316406-118.847656-118.847656-118.847656s-118.847657 53.316406-118.847657 118.847656v64.667969c-40.882812 34.105469-66.945312 85.410156-66.945312 142.691406 0 102.445313 83.347656 185.792969 185.792969 185.792969 102.445312 0 185.792969-83.347656 185.792969-185.792969 0-57.28125-26.0625-108.585937-66.945313-142.691406zm-118.847656 283.484375c-77.632813 0-140.792969-63.160156-140.792969-140.792969 0-77.632812 63.160156-140.792969 140.792969-140.792969 77.632812 0 140.792969 63.160157 140.792969 140.792969 0 77.632813-63.160157 140.792969-140.792969 140.792969zm-88.847657-348.152344c0-48.992187 39.855469-88.847656 88.847657-88.847656 48.992187 0 88.847656 39.855469 88.847656 88.847656v44.226563c-26.410156-14.441407-56.6875-22.660157-88.847656-22.660157-32.160157 0-62.4375 8.21875-88.847657 22.660157zm0 0"/></svg>