<svg height="512pt" viewBox="0 0 512 512" width="512pt" xmlns="http://www.w3.org/2000/svg"><path d="m512 0h-512v120.097656h512zm-421.941406 75.046875h-30.023438v-30h30.023438zm60.050781 0h-30.023437v-30h30.023437zm241.804687 0h-30.023437v-30h30.023437zm60.050782 0h-30.023438v-30h30.023438zm0 0"/><path d="m179.210938 433.753906h-121.785157l27.019531-27.019531-21.214843-21.214844-63.230469 63.234375 63.230469 63.226563 21.214843-21.210938-27.019531-27.019531h121.785157c-.949219-4.855469-1.457032-9.867188-1.457032-15 0-5.128906.507813-10.140625 1.457032-14.996094zm0 0"/><path d="m332.789062 463.753906h121.785157l-27.019531 27.015625 21.214843 21.214844 63.230469-63.230469-63.230469-63.234375-21.214843 21.214844 27.019531 27.019531h-121.785157c.949219 4.855469 1.457032 9.867188 1.457032 15 0 5.128906-.507813 10.140625-1.457032 15zm0 0"/><path d="m225.976562 300.191406v76.3125c9.25-3.859375 19.390626-6 30.023438-6s20.773438 2.140625 30.023438 6v-76.3125zm0 0"/><path d="m512 270.191406v-120.09375h-512v120.09375zm-90.058594-75.046875h30.023438v30h-30.023438zm-60.050781 0h30.023437v30h-30.023437zm-271.832031 30h-30.023438v-30h30.023438zm60.050781 0h-30.023437v-30h30.023437zm0 0"/><path d="m304.246094 448.753906c0 26.644532-21.597656 48.246094-48.246094 48.246094s-48.246094-21.601562-48.246094-48.246094c0-26.648437 21.597656-48.25 48.246094-48.25s48.246094 21.601563 48.246094 48.25zm0 0"/></svg>