<svg height="512pt" viewBox="0 0 512 512.00101" width="512pt" xmlns="http://www.w3.org/2000/svg"><path d="m89.957031 0h60.523438v59.960938h-60.523438zm0 0"/><path d="m180.480469 0h60.519531v59.960938h-60.519531zm0 0"/><path d="m361.519531 0h60.523438v59.960938h-60.523438zm0 0"/><path d="m180.480469 452.039062h60.519531v59.960938h-60.519531zm0 0"/><path d="m271 0h60.519531v59.960938h-60.519531zm0 0"/><path d="m271 452.039062h60.519531v59.960938h-60.519531zm0 0"/><path d="m361.519531 452.039062h60.523438v59.960938h-60.523438zm0 0"/><path d="m89.957031 452.039062h60.523438v59.960938h-60.523438zm0 0"/><path d="m452.042969 89.957031h59.957031v60.523438h-59.957031zm0 0"/><path d="m452.042969 180.480469h59.957031v60.519531h-59.957031zm0 0"/><path d="m0 180.480469h59.960938v60.519531h-59.960938zm0 0"/><path d="m0 271h59.960938v60.519531h-59.960938zm0 0"/><path d="m0 89.957031h59.960938v60.523438h-59.960938zm0 0"/><path d="m452.042969 361.519531h59.957031v60.523438h-59.957031zm0 0"/><path d="m0 361.519531h59.960938v60.523438h-59.960938zm0 0"/><path d="m452.042969 271h59.957031v60.519531h-59.957031zm0 0"/><path d="m89.957031 422.042969h332.085938v-332.085938h-332.085938zm37.472657-294.613281h257.144531v257.140624h-257.144531zm0 0"/><path d="m157.425781 157.425781h197.148438v197.148438h-197.148438zm0 0"/></svg>