<svg height="512pt" viewBox="0 -30 512 511" width="512pt" xmlns="http://www.w3.org/2000/svg"><path d="m512 30.523438h-298.011719l-20.015625-30.023438h-193.972656v451.953125h200.96875v-124.351563c-36.777344-20.0625-60.039062-58.707031-60.039062-101.039062 0-24.945312 7.878906-48.695312 22.789062-68.683594 14.398438-19.300781 34.90625-33.894531 57.746094-41.09375l19.511718-6.148437v90.917969h30.046876v-90.917969l19.507812 6.148437c22.839844 7.199219 43.347656 21.792969 57.746094 41.09375 14.914062 19.988282 22.792968 43.738282 22.792968 68.683594 0 42.332031-23.261718 80.976562-60.039062 101.039062v124.351563h200.96875zm0 0"/><path d="m281.03125 308.964844 8.980469-3.9375c31.015625-13.59375 51.058593-44.195313 51.058593-77.964844 0-18.429688-5.820312-35.976562-16.835937-50.746094-6.339844-8.496094-14.273437-15.761718-23.210937-21.371094v77.105469h-90.046876v-77.105469c-8.9375 5.609376-16.871093 12.875-23.210937 21.371094-11.015625 14.769532-16.835937 32.316406-16.835937 50.746094 0 33.769531 20.042968 64.375 51.058593 77.964844l8.980469 3.9375v143.488281h50.0625zm0 0"/></svg>