<svg height="512pt" viewBox="0 0 512 512" width="512pt" xmlns="http://www.w3.org/2000/svg"><path d="m0 250.199219h512v-110.109375h-512zm421.941406-70.054688h30.023438v30h-30.023438zm-301.855468 0h271.828124v30h-271.828124zm-60.050782 0h30.023438v30h-30.023438zm0 0"/><path d="m0 0v110.089844h512v-110.089844zm90.058594 70.042969h-30.023438v-30h30.023438zm301.855468 0h-271.828124v-30h271.828124zm60.050782 0h-30.023438v-30h30.023438zm0 0"/><path d="m0 390.289062h512v-110.089843h-512zm421.941406-70.046874h30.023438v30h-30.023438zm-301.855468 0h271.828124v30h-271.828124zm-60.050782 0h30.023438v30h-30.023438zm0 0"/><path d="m291.027344 420.3125h-70.054688v61.6875h-220.972656v30h512v-30h-220.972656zm0 0"/></svg>