<svg height="512pt" viewBox="0 -30 512 511" width="512pt" xmlns="http://www.w3.org/2000/svg"><path d="m256 353.472656c11.972656 0 21.714844-9.742187 21.714844-21.714844v-60.46875c0-11.972656-9.742188-21.714843-21.714844-21.714843s-21.714844 9.742187-21.714844 21.714843v60.46875c0 11.972657 9.742188 21.714844 21.714844 21.714844zm0 0"/><path d="m0 452.453125h512v-301.855469h-512zm164.21875-165.929687h40.066406v-15.234376c0-8.808593 2.222656-17.109374 6.125-24.378906l-29.917968-29.914062 21.214843-21.214844 29.914063 29.917969c7.269531-3.902344 15.570312-6.125 24.378906-6.125s17.109375 2.222656 24.378906 6.125l29.914063-29.917969 21.214843 21.214844-29.917968 29.914062c3.902344 7.269532 6.125 15.570313 6.125 24.378906v15.234376h40.066406v30h-40.066406v15.234374c0 8.8125-2.222656 17.109376-6.125 24.378907l29.917968 29.917969-21.214843 21.210937-29.914063-29.914063c-7.269531 3.902344-15.570312 6.121094-24.378906 6.121094s-17.109375-2.21875-24.378906-6.121094l-29.914063 29.914063-21.214843-21.210937 29.917968-29.917969c-3.902344-7.269531-6.125-15.566407-6.125-24.378907v-15.234374h-40.066406zm0 0"/><path d="m0 .5v120.097656h512v-120.097656zm90.058594 75.046875h-30.023438v-30h30.023438zm60.050781 0h-30.023437v-30h30.023437zm60.046875 0h-30.023438v-30h30.023438zm0 0"/></svg>