<svg height="512pt" viewBox="0 0 512 512.001" width="512pt" xmlns="http://www.w3.org/2000/svg"><path d="m330.964844 309.753906 181.035156 181.035156v-68.992187l-153.28125-153.28125c-7.585938 14.878906-16.925781 28.714844-27.753906 41.238281zm0 0"/><path d="m490.789062 512-181.035156-181.035156c-12.519531 10.828125-26.359375 20.171875-41.238281 27.753906l153.28125 153.28125zm0 0"/><path d="m0 175.5c0 96.773438 78.730469 175.503906 175.503906 175.503906 96.769532 0 175.5-78.730468 175.5-175.503906 0-96.769531-78.730468-175.5-175.5-175.5-96.773437 0-175.503906 78.730469-175.503906 175.5zm133.292969-87.789062c25.175781 0 45.585937 20.410156 45.585937 45.582031 0 25.175781-20.410156 45.582031-45.585937 45.582031-25.171875 0-45.582031-20.40625-45.582031-45.582031 0-25.171875 20.40625-45.582031 45.582031-45.582031zm0 0"/></svg>