<svg height="512.00001pt" viewBox="0 0 512.00001 512.00001" width="512.00001pt" xmlns="http://www.w3.org/2000/svg"><path d="m311.03125 90.007812h50.039062v-30h91.382813v90.921876h-30.460937v50.039062h90.007812v-50.039062h-29.546875v-120.921876h-121.382813v-30.007812h-50.039062zm0 0"/><path d="m230.96875 0h50.0625v90.007812h-50.0625zm0 0"/><path d="m230.96875 421.992188h50.0625v90.007812h-50.0625zm0 0"/><path d="m200.96875 421.992188h-50.039062v30.460937h-90.921876v-91.382813h30v-50.039062h-90.007812v50.039062h30.007812v121.382813h120.921876v29.546875h50.039062zm0 0"/><path d="m421.992188 230.96875h90.007812v50.0625h-90.007812zm0 0"/><path d="m421.992188 311.03125v50.039062h30.460937v91.382813h-91.382813v-30.460937h-50.039062v90.007812h50.039062v-29.546875h121.382813v-121.382813h29.546875v-50.039062zm0 0"/><path d="m90.007812 200.96875v-50.039062h-30v-90.921876h90.921876v30h50.039062v-90.007812h-50.039062v30.007812h-120.921876v120.921876h-30.007812v50.039062zm0 0"/><path d="m0 230.96875h90.007812v50.0625h-90.007812zm0 0"/><path d="m195.007812 195.007812h121.984376v121.984376h-121.984376zm0 0"/><path d="m391.992188 120.007812h-271.984376v271.984376h271.984376zm-226.984376 226.984376v-181.984376h181.984376v181.984376zm0 0"/></svg>