<svg height="512pt" viewBox="0 0 512 512" width="512pt" xmlns="http://www.w3.org/2000/svg"><path d="m220.867188 366.742188c80.433593 0 145.875-65.441407 145.875-145.875-.003907-80.4375-65.441407-145.875-145.875-145.875-80.4375 0-145.875 65.4375-145.875 145.875 0 80.433593 65.4375 145.875 145.875 145.875zm-65.226563-166.785157 46.816406 46.816407 83.632813-83.632813 21.210937 21.210937-104.84375 104.84375-68.027343-68.027343zm0 0"/><path d="m512 441.257812-103.699219-103.695312c21.171875-33.882812 33.429688-73.882812 33.429688-116.695312 0-121.785157-99.078125-220.867188-220.863281-220.867188-121.785157 0-220.867188 99.082031-220.867188 220.867188 0 121.785156 99.082031 220.867187 220.867188 220.867187 42.8125 0 82.808593-12.257813 116.691406-33.429687l103.699218 103.695312zm-291.132812-396.261718c96.972656 0 175.871093 78.894531 175.871093 175.871094 0 96.976562-78.898437 175.871093-175.871093 175.871093-96.976563 0-175.871094-78.894531-175.871094-175.871093 0-96.976563 78.894531-175.871094 175.871094-175.871094zm0 0"/></svg>