<svg height="512pt" viewBox="0 0 512 512" width="512pt" xmlns="http://www.w3.org/2000/svg"><path d="m512 319.019531v-126.039062h-40.730469c-4.539062-15.480469-10.742187-30.40625-18.535156-44.59375l28.847656-28.84375-89.121093-89.125-28.847657 28.847656c-14.1875-7.792969-29.109375-13.996094-44.59375-18.53125v-40.734375h-126.039062v40.730469c-15.484375 4.539062-30.40625 10.742187-44.59375 18.535156l-28.847657-28.847656-89.117187 89.125 28.84375 28.84375c-7.792969 14.1875-13.996094 29.113281-18.53125 44.59375h-40.734375v126.039062h40.730469c4.539062 15.480469 10.742187 30.40625 18.535156 44.59375l-28.84375 28.84375 89.121094 89.125 28.847656-28.847656c14.183594 7.792969 29.105469 13.996094 44.589844 18.53125v40.734375h126.039062v-40.730469c15.484375-4.539062 30.40625-10.742187 44.59375-18.535156l28.847657 28.847656 89.121093-89.121093-28.847656-28.847657c7.792969-14.183593 13.996094-29.109375 18.535156-44.59375zm-300.78125 8.085938-23.574219 18.550781-70.550781-89.65625 70.550781-89.65625 23.574219 18.550781-55.949219 71.105469zm59.78125-161.160157v180.109376h-30v-180.109376zm29.78125 18.949219 23.574219-18.550781 70.550781 89.65625-70.550781 89.65625-23.574219-18.550781 55.949219-71.105469zm0 0"/></svg>