<svg height="512pt" viewBox="0 -30 512 511" width="512pt" xmlns="http://www.w3.org/2000/svg"><path d="m0 452.453125h512v-301.855469h-512zm361.890625-45.855469h-211.78125v-30h211.78125zm90.074219 0h-60.050782v-30h60.050782zm0-60.050781h-180.953125v-30h180.953125zm-301.855469-60.046875v-30h211.78125v30zm301.855469 0h-60.050782v-30h60.050782zm-180.953125-90.046875h180.953125v30h-180.953125zm-210.976563 0h180.953125v30h-180.953125zm0 60.046875h60.050782v30h-60.050782zm0 60.046875h180.953125v30h-180.953125zm0 60.050781h60.050782v30h-60.050782zm0 0"/><path d="m0 .5v120.097656h512v-120.097656zm90.058594 75.046875h-30.023438v-30h30.023438zm60.050781 0h-30.023437v-30h30.023437zm60.046875 0h-30.023438v-30h30.023438zm0 0"/></svg>