<svg height="512pt" viewBox="-28 0 512 512.002" width="512pt" xmlns="http://www.w3.org/2000/svg"><path d="m257.824219 206.800781c0-16.4375-13.375-29.808593-29.8125-29.808593s-29.808594 13.371093-29.808594 29.808593 13.371094 29.8125 29.808594 29.8125 29.8125-13.375 29.8125-29.8125zm0 0"/><path d="m333.242188 341.191406c31.261718-45.171875 47.785156-98.085937 47.785156-153.019531v-50.839844c-12.785156-7.449219-24.625-16.550781-35.207032-27.128906-10.578124-10.582031-19.679687-22.421875-27.128906-35.207031h-181.359375c-7.445312 12.785156-16.550781 24.625-27.128906 35.207031-10.582031 10.578125-22.421875 19.679687-35.207031 27.128906v50.839844c0 54.933594 16.523437 107.847656 47.785156 153.019531 26.882812 38.84375 62.960938 69.503906 105.230469 89.640625 42.273437-20.136719 78.347656-50.796875 105.230469-89.640625zm-165.039063-134.390625c0-32.976562 26.832031-59.808593 59.808594-59.808593 32.980469 0 59.808593 26.832031 59.808593 59.808593 0 27.800781-19.066406 51.230469-44.808593 57.902344v54.121094h-29.996094v-54.121094c-25.746094-6.671875-44.8125-30.101563-44.8125-57.902344zm0 0"/><path d="m444.578125 82.941406c-17.269531-4.210937-33.078125-13.125-45.726563-25.769531-12.644531-12.648437-21.558593-28.460937-25.769531-45.726563l-2.789062-11.445312h-284.558594l-2.792969 11.445312c-4.210937 17.265626-13.121094 33.078126-25.769531 45.726563-12.644531 12.644531-28.457031 21.558594-45.726563 25.769531l-11.445312 2.792969v102.441406c0 70.253907 21.132812 137.921875 61.113281 195.695313 39.976563 57.769531 95.863281 101.386718 161.613281 126.140625l5.285157 1.992187 5.285156-1.992187c65.75-24.753907 121.632813-68.371094 161.613281-126.140625 39.980469-57.769532 61.109375-125.441406 61.109375-195.695313v-102.445312zm-346.464844 275.320313c-34.746093-50.210938-53.113281-109.027344-53.113281-170.089844v-68.082031l14.898438-8.679688c10.601562-6.175781 20.390624-13.71875 29.09375-22.417968 8.699218-8.703126 16.242187-18.492188 22.421874-29.097657l8.679688-14.898437h215.839844l8.679687 14.898437c6.175781 10.605469 13.722657 20.394531 22.421875 29.09375 8.699219 8.703125 18.488282 16.246094 29.089844 22.421875l14.898438 8.675782v68.085937c0 61.0625-18.363282 119.875-53.113282 170.089844-29.664062 42.863281-70.121094 77.324219-116.996094 99.652343l-12.902343 6.144532-12.898438-6.144532c-46.878906-22.328124-87.335937-56.789062-117-99.652343zm0 0"/></svg>