<svg height="511.99999pt" viewBox="1 1 511.99999 511.99999" width="511.99999pt" xmlns="http://www.w3.org/2000/svg"><path d="m484.726562 399.027344v-63.644532h-213.726562v-40.714843h135.851562c45.996094 0 83.417969-37.421875 83.417969-83.421875 0-41.097656-30.085937-75.515625-69.394531-82.222656-8.09375-44.585938-46.898438-77.847657-93.523438-77.847657-10.542968 0-21.042968 1.773438-30.972656 5.1875-21.574218-34.648437-59.933594-56.363281-101.339844-56.363281-65.769531 0-119.277343 53.507812-119.277343 119.277344 0 4.542968.257812 9.082031.769531 13.585937-32.488281 11.761719-54.800781 42.679688-54.800781 78.382813 0 46 37.421875 83.417968 83.417969 83.417968h135.851562v40.71875h-213.726562v63.644532c4.84375-1.023438 9.859374-1.574219 15-1.574219 5.144531 0 10.160156.550781 15 1.574219v-33.648438h183.726562v33.648438c4.84375-1.027344 9.855469-1.578125 15-1.578125s10.15625.550781 15 1.578125v-33.648438h183.726562v33.648438c4.839844-1.023438 9.855469-1.574219 15-1.574219 5.140626 0 10.160157.550781 15 1.574219zm0 0"/><path d="m298.273438 469.726562c0 23.347657-18.925782 42.273438-42.273438 42.273438s-42.273438-18.925781-42.273438-42.273438c0-23.347656 18.925782-42.273437 42.273438-42.273437s42.273438 18.925781 42.273438 42.273437zm0 0"/><path d="m84.546875 469.726562c0 23.347657-18.925781 42.273438-42.273437 42.273438-23.347657 0-42.273438-18.925781-42.273438-42.273438 0-23.347656 18.925781-42.273437 42.273438-42.273437 23.347656 0 42.273437 18.925781 42.273437 42.273437zm0 0"/><path d="m512 469.726562c0 23.347657-18.925781 42.273438-42.273438 42.273438-23.347656 0-42.273437-18.925781-42.273437-42.273438 0-23.347656 18.925781-42.273437 42.273437-42.273437 23.347657 0 42.273438 18.925781 42.273438 42.273437zm0 0"/></svg>