<svg height="512pt" viewBox="0 0 512 512" width="512pt" xmlns="http://www.w3.org/2000/svg"><path d="m422 301.332031v-90.664062h-332v90.664062zm-150.988281-60.332031h120.953125v30h-120.953125zm-75.488281 0h45.464843v30h-45.464843zm-30.023438 0v30h-45.464844v-30zm0 0"/><path d="m422 180.667969v-90.667969h-332v90.667969zm-150.988281-60.335938h120.953125v30h-120.953125zm-75.488281 0h45.464843v30h-45.464843zm-75.488282 0h45.464844v30h-45.464844zm0 0"/><path d="m90 331.332031v90.667969h332v-90.667969zm75.5 60.335938h-45.464844v-30h45.464844zm75.488281 0h-45.464843v-30h45.464843zm150.976563 0h-120.953125v-30h120.953125zm0 0"/><path d="m0 0v512h512v-512zm60 452v-392h392v392zm0 0"/></svg>