<svg height="512pt" viewBox="0 -30 512 512" width="512pt" xmlns="http://www.w3.org/2000/svg"><path d="m256 354.742188c62.722656 0 113.753906-51.03125 113.753906-113.753907 0-62.726562-51.03125-113.753906-113.753906-113.753906s-113.753906 51.027344-113.753906 113.753906c0 62.722657 51.03125 113.753907 113.753906 113.753907zm-15.011719-195.503907h30.023438v30h-30.023438zm-30.023437 121.710938h30.035156v-31.664063h-30.035156v-30h60.035156v61.664063h30.035156v30h-90.070312zm0 0"/><path d="m213.988281 30.023438-20.015625-30.023438h-193.972656v451.949219h512v-421.925781zm42.011719 67.210937c79.265625 0 143.753906 64.484375 143.753906 143.753906 0 79.265625-64.488281 143.753907-143.753906 143.753907s-143.753906-64.488282-143.753906-143.753907c0-79.269531 64.488281-143.753906 143.753906-143.753906zm0 0"/></svg>