<svg height="512pt" viewBox="0 0 512 512" width="512pt" xmlns="http://www.w3.org/2000/svg"><path d="m210.902344 210.902344h90.195312v90.195312h-90.195312zm0 0"/><path d="m361.101562 150.898438h-210.203124v210.203124h210.203124zm-30.003906 180.199218h-150.199218v-150.195312h150.199218zm0 0"/><path d="m0 0v512h512v-512zm90.847656 120.886719v30.023437h-30v-30.023437zm-30-30.027344v-30.023437h30v30.023437zm30 90.078125v30.023438h-30v-30.023438zm0 60.050781v30.023438h-30v-30.023438zm0 60.050781v30.023438h-30v-30.023438zm0 60.050782v30.023437h-30v-30.023437zm0 60.050781v30.023437h-30v-30.023437zm300.253906-300.242187v270.203124h-270.203124v-270.203124zm-270.203124-30.039063v-30.023437h30v30.023437zm60.050781 0v-30.023437h30v30.023437zm60.050781 0v-30.023437h30v30.023437zm60.050781 0v-30.023437h30v30.023437zm60.050781 0v-30.023437h30v30.023437zm30 330.28125v30.023437h-30v-30.023437zm-60.050781 0v30.023437h-30v-30.023437zm-60.050781 0v30.023437h-30v-30.023437zm-60.050781 0v30.023437h-30v-30.023437zm-60.050781 0v30.023437h-30v-30.023437zm300.253906-300.253906v30.023437h-30v-30.023437zm-30-30.027344v-30.023437h30v30.023437zm30 90.078125v30.023438h-30v-30.023438zm0 60.050781v30.023438h-30v-30.023438zm0 60.050781v30.023438h-30v-30.023438zm0 60.050782v30.023437h-30v-30.023437zm0 60.050781v30.023437h-30v-30.023437zm0 0"/></svg>