<svg height="512pt" viewBox="0 -40 512 511" width="512pt" xmlns="http://www.w3.org/2000/svg"><path d="m0 .5v260.992188h331.878906v-260.992188zm60.035156 51.980469h30.832032v30h-30.832032zm0 60.046875h180.953125v30h-180.953125zm30.832032 90.050781h-30.832032v-30h30.832032zm210.976562 0h-180.953125v-30h180.953125zm0-60.050781h-30.832031v-30h30.832031zm-180.953125-60.046875v-30h180.953125v30zm0 0"/><path d="m361.878906.5v260.992188h150.121094v-260.992188zm90.085938 202.078125h-60.050782v-30h60.050782zm0-60.050781h-60.050782v-30h60.050782zm0-60.046875h-60.050782v-30h60.050782zm0 0"/><path d="m0 371.554688h160.9375v30.050781h-30.039062v30h250.203124v-30h-30.039062v-30.050781h160.9375v-80.0625h-512zm0 0"/></svg>