<svg height="512pt" viewBox="0 0 512 512" width="512pt" xmlns="http://www.w3.org/2000/svg"><path d="m512 230.695312c0-44.800781-33.066406-82.257812-76.078125-89.082031-3.707031-21.507812-14.140625-41.257812-30.121094-56.625-19.277343-18.535156-44.625-28.742187-71.378906-28.742187-11.820313 0-23.589844 2.058594-34.679687 6.015625-23.324219-38.242188-65.347657-62.261719-110.746094-62.261719-71.46875 0-129.609375 58.144531-129.609375 129.613281 0 5.328125.328125 10.652344.976562 15.933594-35.730469 12.410156-60.363281 46.136719-60.363281 85.148437 0 44.695313 32.683594 81.898438 75.402344 88.980469 17.503906-83.652343 91.824218-146.671875 180.597656-146.671875s163.09375 63.019532 180.597656 146.667969c42.71875-7.078125 75.402344-44.28125 75.402344-88.976563zm0 0"/><path d="m327.238281 372.503906c-.664062 20.289063-2.667969 40.167969-5.910156 58.894532 20.15625 5.019531 39.203125 12.296874 56.085937 21.546874 17.800782-22.59375 29.4375-50.261718 32.355469-80.441406zm0 0"/><path d="m256 423.394531c12.015625 0 24.023438.816407 35.847656 2.390625 2.90625-16.917968 4.742188-34.898437 5.386719-53.28125h-82.46875c.644531 18.382813 2.480469 36.363282 5.386719 53.28125 11.824218-1.574218 23.832031-2.390625 35.847656-2.390625zm0 0"/><path d="m203.597656 482.28125c-2.410156-6.859375-4.601562-14.082031-6.582031-21.589844-14.445313 3.652344-28.175781 8.621094-40.695313 14.757813 16.519532 13.980469 35.992188 24.570312 57.34375 30.660156-3.566406-6.96875-6.933593-14.914063-10.066406-23.828125zm0 0"/><path d="m184.761719 372.503906h-82.535157c2.921876 30.179688 14.554688 57.847656 32.359376 80.445313 16.882812-9.253907 35.929687-16.53125 56.085937-21.550781-3.242187-18.726563-5.246094-38.605469-5.910156-58.894532zm0 0"/><path d="m280.878906 470.078125c1.617188-4.773437 3.113282-9.757813 4.511719-14.886719-9.691406-1.179687-19.53125-1.796875-29.390625-1.796875s-19.699219.617188-29.390625 1.796875c1.398437 5.128906 2.894531 10.113282 4.511719 14.886719 11.117187 32.769531 22.46875 41.417969 24.878906 41.914063 2.410156-.496094 13.761719-9.144532 24.878906-41.914063zm0 0"/><path d="m314.984375 460.691406c-1.980469 7.507813-4.171875 14.730469-6.582031 21.589844-3.132813 8.914062-6.5 16.859375-10.066406 23.828125 21.351562-6.089844 40.824218-16.679687 57.339843-30.660156-12.519531-6.136719-26.246093-11.105469-40.691406-14.757813zm0 0"/><path d="m291.847656 289.226562c-11.824218 1.574219-23.835937 2.390626-35.847656 2.390626-12.015625 0-24.023438-.816407-35.847656-2.390626-2.90625 16.914063-4.742188 34.894532-5.386719 53.277344h82.46875c-.644531-18.382812-2.480469-36.363281-5.386719-53.277344zm0 0"/><path d="m197.015625 254.320312c1.980469-7.507812 4.171875-14.734374 6.582031-21.589843 3.132813-8.914063 6.5-16.859375 10.066406-23.832031-21.351562 6.09375-40.824218 16.679687-57.339843 30.660156 12.519531 6.136718 26.246093 11.105468 40.691406 14.761718zm0 0"/><path d="m314.984375 254.320312c14.445313-3.65625 28.175781-8.625 40.695313-14.761718-16.519532-13.980469-35.992188-24.566406-57.34375-30.660156 3.566406 6.972656 6.933593 14.914062 10.066406 23.832031 2.410156 6.859375 4.601562 14.082031 6.582031 21.589843zm0 0"/><path d="m255.96875 203.011719c-2.230469.386719-13.660156 8.941406-24.847656 41.921875-1.617188 4.769531-3.113282 9.753906-4.507813 14.882812 9.6875 1.183594 19.527344 1.800782 29.386719 1.800782s19.699219-.617188 29.390625-1.800782c-1.398437-5.128906-2.890625-10.113281-4.511719-14.882812-11.164062-32.910156-22.566406-41.496094-24.910156-41.921875zm0 0"/><path d="m102.226562 342.503906h82.535157c.664062-20.289062 2.667969-40.167968 5.910156-58.894531-20.15625-5.015625-39.203125-12.296875-56.085937-21.546875-17.804688 22.597656-29.4375 50.261719-32.359376 80.441406zm0 0"/><path d="m377.414062 262.0625c-16.882812 9.25-35.929687 16.53125-56.085937 21.550781 3.242187 18.722657 5.246094 38.605469 5.914063 58.890625h82.53125c-2.921876-30.179687-14.554688-57.847656-32.359376-80.441406zm0 0"/></svg>