<svg height="512pt" viewBox="0 0 512 512.001" width="512pt" xmlns="http://www.w3.org/2000/svg"><path d="m511.976562 230.683594c0-44.796875-33.066406-82.253906-76.074218-89.074219-3.707032-21.507813-14.140625-41.257813-30.121094-56.625-19.277344-18.53125-44.625-28.738281-71.371094-28.738281-11.824218 0-23.589844 2.054687-34.679687 6.011718-23.324219-38.238281-65.34375-62.257812-110.742188-62.257812-71.464843 0-129.605469 58.140625-129.605469 129.605469 0 5.328125.328126 10.652343.976563 15.933593-35.726563 12.410157-60.359375 46.136719-60.359375 85.144532 0 42.960937 30.191406 78.996094 70.46875 88.015625v-87.375h371.039062v87.375c40.277344-9.019531 70.46875-45.054688 70.46875-88.015625zm0 0"/><path d="m100.46875 401.660156v110.339844h311.042969v-110.339844zm72.710938 70.171875h-35.082032v-30h35.082032zm130.53125 0h-95.445313v-30h95.445313zm70.171874 0h-35.085937v-30h35.085937zm0 0"/><path d="m411.511719 261.320312h-311.042969v110.34375h311.042969zm-273.417969 70.171876v-30h35.085938v30zm70.171875 0v-30h95.445313v30zm130.53125 0v-30h35.085937v30zm0 0"/></svg>