<svg height="512pt" viewBox="0 0 512 512" width="512pt" xmlns="http://www.w3.org/2000/svg"><path d="m0 451.953125h135.882812c-27.695312-40.511719-42.335937-87.824219-42.335937-136.933594v-74.539062l11.445313-2.789063c22.515624-5.492187 40.609374-23.585937 46.101562-46.101562l2.789062-11.445313h204.234376l2.792968 11.445313c5.488282 22.515625 23.585938 40.609375 46.097656 46.101562l11.445313 2.789063v74.539062c0 49.109375-14.636719 96.421875-42.332031 136.933594h135.878906v-301.855469h-512zm0 0"/><path d="m0 0v120.097656h512v-120.097656zm90.058594 75.046875h-30.023438v-30h30.023438zm60.050781 0h-30.023437v-30h30.023437zm60.046875 0h-30.023438v-30h30.023438zm0 0"/><path d="m335.339844 210.144531h-158.679688c-9.40625 24.464844-28.648437 43.707031-53.113281 53.113281v51.761719c0 43.449219 13.066406 85.296875 37.792969 121.023438 23.644531 34.167969 56.289062 60.332031 94.660156 75.941406 38.371094-15.609375 71.015625-41.773437 94.660156-75.941406 24.722656-35.726563 37.792969-77.574219 37.792969-121.023438v-51.761719c-24.464844-9.40625-43.707031-28.648437-53.113281-53.113281zm-79.339844 63.914063c29.886719 0 54.203125 24.316406 54.203125 54.203125 0 24.683593-16.589844 45.550781-39.203125 52.074219v45.933593h-30v-45.933593c-22.609375-6.523438-39.203125-27.390626-39.203125-52.074219 0-29.886719 24.316406-54.203125 54.203125-54.203125zm0 0"/><path d="m256 352.464844c13.34375 0 24.203125-10.859375 24.203125-24.203125 0-13.347657-10.855469-24.203125-24.203125-24.203125s-24.203125 10.855468-24.203125 24.203125c0 13.34375 10.859375 24.203125 24.203125 24.203125zm0 0"/></svg>