<svg height="511pt" viewBox="1 0 511.99999 511" width="511pt" xmlns="http://www.w3.org/2000/svg"><path d="m169.402344 358.921875h173.195312v61.542969h-173.195312zm0 0"/><path d="m0 358.921875h139.433594v61.542969h-139.433594zm0 0"/><path d="m270.984375 450.433594h161.941406v61.546875h-161.941406zm0 0"/><path d="m79.074219 450.433594h161.941406v61.546875h-161.941406zm0 0"/><path d="m462.894531 267.40625h49.105469v61.542969h-49.105469zm0 0"/><path d="m462.894531 450.433594h49.105469v61.546875h-49.105469zm0 0"/><path d="m0 450.433594h49.105469v61.546875h-49.105469zm0 0"/><path d="m372.566406 358.921875h139.433594v61.542969h-139.433594zm0 0"/><path d="m0 267.40625h49.105469v61.542969h-49.105469zm0 0"/><path d="m79.074219 328.949219h84.109375c-21.863282-15.765625-39.574219-36.9375-51.160156-61.542969h-32.949219zm0 0"/><path d="m348.816406 328.949219h84.109375v-61.542969h-32.949219c-11.589843 24.605469-29.296874 45.777344-51.160156 61.542969zm0 0"/><path d="m126.921875 199.871094c0 71.171875 57.902344 129.078125 129.078125 129.078125s129.082031-57.902344 129.082031-129.078125c0-85.414063-98.347656-173.828125-129.082031-199.371094-30.722656 25.53125-129.078125 113.953125-129.078125 199.371094zm120.03125-76.878906 9.046875-6.851563 9.046875 6.851563c.550781.417968 13.644531 10.390624 26.78125 25.328124 18.78125 21.363282 28.304687 41.949219 28.304687 61.195313 0 35.363281-28.769531 64.132813-64.132812 64.132813s-64.132812-28.769532-64.132812-64.132813c0-19.246094 9.523437-39.832031 28.304687-61.195313 13.136719-14.9375 26.230469-24.910156 26.78125-25.328124zm0 0"/><path d="m256 243.679688c18.839844 0 34.164062-15.328126 34.164062-34.164063 0-19.542969-20.019531-42.097656-34.164062-55.003906-14.140625 12.898437-34.164062 35.457031-34.164062 55.003906 0 18.835937 15.328124 34.164063 34.164062 34.164063zm0 0"/></svg>