<svg height="512pt" viewBox="-90 0 512 512" width="512pt" xmlns="http://www.w3.org/2000/svg"><path d="m195.589844 323.621094c0-16.4375-13.375-29.808594-29.8125-29.808594s-29.8125 13.371094-29.8125 29.808594c0 16.441406 13.375 29.8125 29.8125 29.8125s29.8125-13.371094 29.8125-29.8125zm0 0"/><path d="m284.625 190.453125v-71.605469c0-65.535156-53.316406-118.847656-118.847656-118.847656-65.535156 0-118.847656 53.3125-118.847656 118.847656v71.605469h-46.929688v321.546875h331.554688v-321.546875zm-178.660156 133.167969c0-32.976563 26.832031-59.808594 59.8125-59.808594 32.980468 0 59.8125 26.828125 59.8125 59.808594 0 27.804687-19.066406 51.234375-44.8125 57.90625v54.125h-30v-54.125c-25.746094-6.671875-44.8125-30.101563-44.8125-57.90625zm-29.035156-204.773438c0-48.992187 39.855468-88.847656 88.847656-88.847656 48.992187 0 88.847656 39.855469 88.847656 88.847656v71.605469h-177.695312zm0 0"/></svg>