<svg height="512pt" viewBox="0 0 512 512" width="512pt" xmlns="http://www.w3.org/2000/svg"><path d="m256 140.820312c-63.511719 0-115.179688 51.667969-115.179688 115.179688s51.667969 115.179688 115.179688 115.179688 115.179688-51.667969 115.179688-115.179688-51.667969-115.179688-115.179688-115.179688zm0 185.359376c-38.695312 0-70.179688-31.480469-70.179688-70.179688s31.480469-70.179688 70.179688-70.179688 70.179688 31.480469 70.179688 70.179688-31.484376 70.179688-70.179688 70.179688zm0 0"/><path d="m256 215.820312c-22.15625 0-40.179688 18.023438-40.179688 40.179688s18.023438 40.179688 40.179688 40.179688 40.179688-18.023438 40.179688-40.179688-18.023438-40.179688-40.179688-40.179688zm0 0"/><path d="m512 307.796875v-103.59375l-46.621094-13.550781c-3.9375-12.585938-9.003906-24.792969-15.140625-36.460938l23.40625-42.585937-73.25-73.25-42.585937 23.40625c-11.667969-6.136719-23.875-11.203125-36.460938-15.140625l-13.550781-46.621094h-103.59375l-13.550781 46.621094c-12.585938 3.9375-24.792969 9.003906-36.460938 15.140625l-42.585937-23.40625-73.25 73.25 23.402343 42.585937c-6.132812 11.667969-11.199218 23.875-15.136718 36.460938l-46.621094 13.550781v103.59375l46.621094 13.550781c3.9375 12.585938 9.003906 24.792969 15.140625 36.460938l-23.40625 42.585937 73.25 73.25 42.585937-23.402343c11.667969 6.132812 23.875 11.199218 36.460938 15.136718l13.550781 46.621094h103.59375l13.550781-46.621094c12.585938-3.9375 24.792969-9.003906 36.460938-15.140625l42.585937 23.40625 73.25-73.25-23.402343-42.585937c6.132812-11.667969 11.199218-23.875 15.136718-36.460938zm-110.820312-51.796875c0 80.050781-65.125 145.179688-145.179688 145.179688s-145.179688-65.128907-145.179688-145.179688 65.128907-145.179688 145.179688-145.179688 145.179688 65.128907 145.179688 145.179688zm0 0"/></svg>