<svg height="512pt" viewBox="0 0 512.00099 512" width="512pt" xmlns="http://www.w3.org/2000/svg"><path d="m512 105.046875v-105.046875h-444.476562v105.046875zm-273.789062-67.523437h33.761718v30h-33.761718zm-67.523438 0h33.761719v30h-33.761719zm-67.523438 0h33.761719v30h-33.761719zm0 0"/><path d="m474.476562 135.046875h37.523438v241.90625h-37.523438zm0 0"/><path d="m444.476562 240.09375v-105.046875h-444.476562v105.046875zm-240.027343-67.523438v30h-33.761719v-30zm-67.523438 0v30h-33.761719v-30zm-101.28125 0h33.761719v30h-33.761719zm0 0"/><path d="m444.476562 270.09375h-444.476562v241.90625h444.476562zm-91.910156 38.429688h56.269532v30h-56.269532zm-226.894531 0h193.132813v30h-193.132813zm-90.027344 0h56.265625v30h-56.265625zm0 67.523437h169.714844v30h-169.714844zm56.265625 97.519531h-56.265625v-29.996094h56.265625zm226.894532 0h-193.132813v-29.996094h193.132813zm90.03125 0h-56.269532v-29.996094h56.269532zm0-67.519531h-169.714844v-30h169.714844zm0 0"/></svg>