<svg height="512pt" viewBox="-94 0 512 512" width="512pt" xmlns="http://www.w3.org/2000/svg"><path d="m162.429688 361.910156c12.339843 0 22.378906-10.039062 22.378906-22.378906s-10.039063-22.378906-22.378906-22.378906c-12.339844 0-22.378907 10.039062-22.378907 22.378906s10.039063 22.378906 22.378907 22.378906zm0 0"/><path d="m0 90.050781h324.855469v30.050781h-324.855469zm0 0"/><path d="m0 210.15625v301.84375h324.855469v-301.84375zm162.429688 76.996094c28.882812 0 52.378906 23.496094 52.378906 52.378906s-23.496094 52.378906-52.378906 52.378906c-28.882813 0-52.378907-23.496094-52.378907-52.378906s23.496094-52.378906 52.378907-52.378906zm-102.390626 134.804687h204.777344v30.003907h-204.777344zm0 0"/><path d="m0 150.105469h324.855469v30.046875h-324.855469zm0 0"/><path d="m0 0h324.855469v60.050781h-324.855469zm0 0"/></svg>