<svg height="512pt" viewBox="0 -30 512 511" width="512pt" xmlns="http://www.w3.org/2000/svg"><path d="m0 452.453125h512v-301.855469h-512zm436.132812-45.855469h-360.265624v-90.050781h360.265624zm.011719-120.097656h-165.132812v-30h165.132812zm-60.046875-90.046875h60.046875v30h-60.046875zm-210.167968 0h180.144531v30h-180.144531zm-90.074219 0h60.046875v30h-60.046875zm0 60.046875h165.132812v30h-165.132812zm0 0"/><path d="m105.867188 346.550781h29.242187v30.046875h-29.242187zm0 0"/><path d="m165.109375 346.550781h241.023437v30.046875h-241.023437zm0 0"/><path d="m0 .5v120.097656h512v-120.097656zm90.058594 75.046875h-30.023438v-30h30.023438zm60.050781 0h-30.023437v-30h30.023437zm60.046875 0h-30.023438v-30h30.023438zm0 0"/></svg>