<svg height="511pt" viewBox="0 1 511 511.99999" width="511pt" xmlns="http://www.w3.org/2000/svg"><path d="m482.464844 175.136719h-88.824219c-6.480469 17.269531-15.113281 33.789062-25.796875 49.226562-26.238281 37.914063-62.914062 66.539063-106.066406 82.785157l-5.285156 1.988281-5.28125-1.988281c-43.152344-16.246094-79.828126-44.871094-106.066407-82.785157-10.683593-15.4375-19.316406-31.957031-25.796875-49.226562h-88.824218v171.769531h451.941406zm0 0"/><path d="m482.464844 145.136719v-45.046875h-74.554688c-.277344 15.277344-2.085937 30.351562-5.359375 45.046875zm0 0"/><path d="m30.523438 100.089844v45.046875h79.914062c-3.273438-14.695313-5.082031-29.769531-5.359375-45.046875zm0 0"/><path d="m30.523438 376.90625h451.941406v45.046875h-451.941406zm0 0"/><path d="m.5 451.953125h511.988281v60.046875h-511.988281zm0 0"/><path d="m169.8125 207.292969c21.671875 31.3125 51.554688 55.320312 86.679688 69.703125 35.128906-14.382813 65.011718-38.390625 86.683593-69.703125 22.75-32.875 34.773438-71.382813 34.773438-111.359375v-47.136719c-22.355469-8.824219-39.976563-26.441406-48.796875-48.796875h-145.316406c-8.820313 22.355469-26.441407 39.972656-48.796876 48.796875v47.136719c0 39.976562 12.023438 78.484375 34.773438 111.359375zm86.679688-150.382813c28.277343 0 51.28125 23.003906 51.28125 51.277344 0 23.058594-15.300782 42.605469-36.28125 49.035156v41.660156h-29.996094v-41.660156c-20.980469-6.429687-36.28125-25.976562-36.28125-49.035156 0-28.273438 23.003906-51.277344 51.277344-51.277344zm0 0"/><path d="m235.214844 108.1875c0 11.730469 9.546875 21.277344 21.277344 21.277344 11.734374 0 21.28125-9.546875 21.28125-21.277344 0-11.734375-9.546876-21.277344-21.28125-21.277344-11.730469 0-21.277344 9.542969-21.277344 21.277344zm0 0"/></svg>